<mxfile host="app.diagrams.net" agent="Mozilla/5.0 (Macintosh; Intel Mac OS X 10_15_7) AppleWebKit/605.1.15 (KHTML, like Gecko) Version/18.4 Safari/605.1.15" version="26.2.14">
  <diagram name="Page-1" id="y-d_IdNdtQJXuxd_83ep">
    <mxGraphModel dx="946" dy="566" grid="1" gridSize="10" guides="1" tooltips="1" connect="1" arrows="1" fold="1" page="1" pageScale="1" pageWidth="827" pageHeight="1169" math="0" shadow="0">
      <root>
        <mxCell id="0" />
        <mxCell id="1" parent="0" />
        <mxCell id="uKpNRAYMfHFt7tVKbb1s-6" style="edgeStyle=orthogonalEdgeStyle;rounded=0;orthogonalLoop=1;jettySize=auto;html=1;entryX=0.5;entryY=0;entryDx=0;entryDy=0;" edge="1" parent="1" source="uKpNRAYMfHFt7tVKbb1s-1" target="uKpNRAYMfHFt7tVKbb1s-2">
          <mxGeometry relative="1" as="geometry" />
        </mxCell>
        <mxCell id="uKpNRAYMfHFt7tVKbb1s-1" value="Idle&lt;div&gt;(Set up all the config registers)&lt;/div&gt;" style="rounded=0;whiteSpace=wrap;html=1;" vertex="1" parent="1">
          <mxGeometry x="340" y="90" width="120" height="60" as="geometry" />
        </mxCell>
        <mxCell id="uKpNRAYMfHFt7tVKbb1s-7" style="edgeStyle=orthogonalEdgeStyle;rounded=0;orthogonalLoop=1;jettySize=auto;html=1;entryX=0.5;entryY=0;entryDx=0;entryDy=0;" edge="1" parent="1" source="uKpNRAYMfHFt7tVKbb1s-2" target="uKpNRAYMfHFt7tVKbb1s-3">
          <mxGeometry relative="1" as="geometry" />
        </mxCell>
        <mxCell id="uKpNRAYMfHFt7tVKbb1s-2" value="FILL_BUFFER" style="rounded=0;whiteSpace=wrap;html=1;" vertex="1" parent="1">
          <mxGeometry x="340" y="190" width="120" height="60" as="geometry" />
        </mxCell>
        <mxCell id="uKpNRAYMfHFt7tVKbb1s-8" style="edgeStyle=orthogonalEdgeStyle;rounded=0;orthogonalLoop=1;jettySize=auto;html=1;entryX=0.5;entryY=0;entryDx=0;entryDy=0;" edge="1" parent="1" source="uKpNRAYMfHFt7tVKbb1s-3" target="uKpNRAYMfHFt7tVKbb1s-4">
          <mxGeometry relative="1" as="geometry" />
        </mxCell>
        <mxCell id="uKpNRAYMfHFt7tVKbb1s-3" value="WAIT_FOR_SWITCH" style="rounded=0;whiteSpace=wrap;html=1;" vertex="1" parent="1">
          <mxGeometry x="340" y="280" width="120" height="60" as="geometry" />
        </mxCell>
        <mxCell id="uKpNRAYMfHFt7tVKbb1s-9" style="edgeStyle=orthogonalEdgeStyle;rounded=0;orthogonalLoop=1;jettySize=auto;html=1;entryX=0.5;entryY=0;entryDx=0;entryDy=0;" edge="1" parent="1" source="uKpNRAYMfHFt7tVKbb1s-4" target="uKpNRAYMfHFt7tVKbb1s-5">
          <mxGeometry relative="1" as="geometry" />
        </mxCell>
        <mxCell id="uKpNRAYMfHFt7tVKbb1s-4" value="SWITCH_BUFFER" style="rounded=0;whiteSpace=wrap;html=1;" vertex="1" parent="1">
          <mxGeometry x="340" y="380" width="120" height="60" as="geometry" />
        </mxCell>
        <mxCell id="uKpNRAYMfHFt7tVKbb1s-11" style="edgeStyle=orthogonalEdgeStyle;rounded=0;orthogonalLoop=1;jettySize=auto;html=1;entryX=0;entryY=0.5;entryDx=0;entryDy=0;" edge="1" parent="1" source="uKpNRAYMfHFt7tVKbb1s-5" target="uKpNRAYMfHFt7tVKbb1s-1">
          <mxGeometry relative="1" as="geometry">
            <Array as="points">
              <mxPoint x="295" y="510" />
              <mxPoint x="295" y="120" />
            </Array>
          </mxGeometry>
        </mxCell>
        <mxCell id="uKpNRAYMfHFt7tVKbb1s-5" value="LAUNCH_WRITE" style="rounded=0;whiteSpace=wrap;html=1;" vertex="1" parent="1">
          <mxGeometry x="315" y="480" width="170" height="60" as="geometry" />
        </mxCell>
        <mxCell id="uKpNRAYMfHFt7tVKbb1s-10" style="edgeStyle=orthogonalEdgeStyle;rounded=0;orthogonalLoop=1;jettySize=auto;html=1;entryX=1;entryY=0.25;entryDx=0;entryDy=0;" edge="1" parent="1" source="uKpNRAYMfHFt7tVKbb1s-1" target="uKpNRAYMfHFt7tVKbb1s-1">
          <mxGeometry relative="1" as="geometry" />
        </mxCell>
      </root>
    </mxGraphModel>
  </diagram>
</mxfile>
